<svg viewBox="0 0 14 14" xmlns="http://www.w3.org/2000/svg">
<path d="M11.9958 9.12244L10.1576 8.91257C9.7162 8.86191 9.28199 9.01389 8.97081 9.32507L7.63924 10.6566C5.59123 9.61454 3.91229 7.94284 2.8702 5.88758L4.209 4.54876C4.52018 4.23758 4.67216 3.80337 4.6215 3.36192L4.41163 1.53824C4.32479 0.807323 3.70966 0.257324 2.97151 0.257324H1.71955C0.90179 0.257324 0.221532 0.937586 0.27219 1.75535C0.655739 7.9356 5.59847 12.8711 11.7714 13.2547C12.5892 13.3053 13.2695 12.6251 13.2695 11.8073V10.5553C13.2767 9.82441 12.7267 9.20928 11.9958 9.12244V9.12244Z"/>
</svg>
