<svg viewBox="0 0 20 20" xmlns="http://www.w3.org/2000/svg">
<path fill-rule="evenodd" clip-rule="evenodd" d="M4.70184 18.6426C4.70184 18.6426 4.99975 20 6.53314 20H13.4665C14.9998 20 15.2977 18.6426 15.2977 18.6426L16.6665 5.33336H3.33316L4.70184 18.6426ZM12.6665 7.33339C12.6665 6.96517 12.9649 6.66674 13.3332 6.66674C13.7014 6.66674 13.9999 6.96517 13.9999 7.33339L13.3332 17.3334C13.3332 17.7016 13.0347 18 12.6665 18C12.2984 18 11.9999 17.7015 11.9999 17.3334L12.6665 7.33339ZM9.33317 7.33339C9.33317 6.96517 9.63167 6.66674 9.99982 6.66674C10.368 6.66674 10.6665 6.96517 10.6665 7.33339V17.3334C10.6665 17.7016 10.368 18 9.99982 18C9.6316 18 9.33317 17.7015 9.33317 17.3334V7.33339ZM6.66649 6.66667C7.03472 6.66667 7.33314 6.96509 7.33314 7.33332L7.99987 17.3333C7.99987 17.7015 7.70137 18 7.33314 18C6.96499 18 6.66649 17.7015 6.66649 17.3333L5.99984 7.33339C5.99984 6.96517 6.29834 6.66667 6.66649 6.66667ZM16.2665 2.66772H13.3332V1.33338C13.3332 0.321965 13.0061 0 11.9999 0H7.99979C7.07688 0 6.66649 0.447042 6.66649 1.33338V2.6678H3.73319C3.14364 2.6678 2.6665 3.11529 2.6665 3.66826C2.6665 4.22131 3.14364 4.6688 3.73319 4.6688H16.2665C16.856 4.6688 17.3331 4.22131 17.3331 3.66826C17.3331 3.11529 16.856 2.66772 16.2665 2.66772ZM11.9999 2.66772H7.99987L7.99994 1.3333H11.9999V2.66772H11.9999Z"/>
</svg>
